<?xml version="1.0" standalone="no"?>
<!DOCTYPE svg PUBLIC "-//W3C//DTD SVG 20010904//EN"
 "http://www.w3.org/TR/2001/REC-SVG-20010904/DTD/svg10.dtd">
<svg version="1.0" xmlns="http://www.w3.org/2000/svg"
 width="500.000000pt" height="500.000000pt" viewBox="0 0 500.000000 500.000000"
 preserveAspectRatio="xMidYMid meet">

<g transform="translate(0.000000,500.000000) scale(0.100000,-0.100000)"
fill="#000000" stroke="none">
<path d="M1793 4765 c-76 -21 -129 -50 -186 -103 -107 -101 -150 -199 -150
-342 0 -63 6 -110 17 -139 9 -24 16 -47 16 -52 0 -5 -184 -10 -410 -11 -377
-3 -411 -4 -427 -21 -17 -17 -18 -97 -23 -1565 l-5 -1547 -292 -3 -292 -2 -21
-28 c-19 -23 -21 -35 -16 -88 26 -259 192 -491 422 -587 143 -61 39 -58 2109
-55 2119 4 1916 -4 2085 79 67 33 102 59 165 123 122 123 181 241 205 406 15
101 13 3212 -2 3245 -19 42 -59 47 -359 43 -256 -3 -279 -4 -298 -22 -31 -28
-28 -79 5 -105 25 -20 39 -21 270 -21 l244 0 0 -1560 c0 -1092 -3 -1575 -11
-1612 -33 -159 -149 -306 -300 -378 -163 -77 -316 -78 -474 0 -184 89 -291
244 -314 453 -7 65 -14 85 -31 99 -21 17 -74 18 -925 18 -898 0 -902 0 -929
-21 -33 -26 -36 -77 -5 -105 20 -18 53 -19 882 -24 l860 -5 14 -69 c26 -126
110 -276 202 -359 23 -20 41 -39 41 -42 0 -10 -3184 -5 -3250 5 -208 33 -406
219 -448 423 l-10 47 713 0 c705 0 713 0 739 21 36 28 36 80 0 108 -26 20 -37
21 -430 21 l-404 0 0 1490 0 1490 416 0 417 0 52 -34 c142 -95 354 -102 494
-15 l34 21 211 -210 c116 -115 221 -215 233 -221 29 -15 69 -4 88 22 33 47 23
62 -167 254 l-182 183 853 2 c831 3 853 3 867 22 21 29 18 80 -7 102 -20 18
-52 19 -886 22 -816 2 -865 3 -858 20 26 61 36 124 32 209 -4 80 -9 102 -40
168 -96 202 -321 307 -534 250z"/>
<path d="M2950 2943 c-8 -3 -23 -12 -32 -21 -17 -14 -18 -46 -18 -402 0 -457
-8 -427 114 -423 159 6 308 64 402 158 78 77 98 132 92 249 -8 132 -72 232
-202 315 -113 71 -310 140 -356 124z m213 -214 c130 -62 200 -147 200 -245 0
-118 -103 -204 -275 -229 l-48 -7 0 262 0 263 28 -6 c16 -3 59 -20 95 -38z"/>
<path d="M1375 2858 c-50 -27 -59 -75 -20 -113 22 -23 32 -25 114 -25 l90 0 3
-290 c3 -283 4 -290 25 -311 27 -27 75 -29 103 -4 19 17 20 30 20 312 l0 293
91 0 c50 0 99 5 110 11 48 25 44 105 -7 128 -34 15 -501 15 -529 -1z"/>
<path d="M2199 2857 c-82 -23 -162 -99 -207 -196 -24 -50 -26 -68 -26 -176 -1
-146 19 -206 95 -289 123 -134 285 -134 408 0 75 82 95 143 95 284 0 141 -20
202 -95 284 -79 87 -174 119 -270 93z m133 -162 c129 -88 118 -375 -18 -440
-152 -72 -273 201 -168 381 46 81 120 104 186 59z"/>
<path d="M3935 2861 c-139 -36 -242 -176 -252 -345 -22 -342 284 -546 498
-333 216 215 107 649 -171 681 -25 2 -58 1 -75 -3z m116 -163 c21 -14 45 -46
64 -83 26 -51 30 -71 30 -135 -1 -169 -116 -285 -215 -218 -73 49 -105 130
-98 243 11 162 120 258 219 193z"/>
<path d="M2060 1830 c-33 -33 -30 -75 6 -107 l25 -23 794 0 c569 0 801 3 819
11 51 23 55 103 7 128 -13 8 -277 11 -825 11 -793 0 -806 0 -826 -20z"/>
<path d="M2219 1441 c-17 -13 -23 -29 -23 -56 0 -27 6 -43 23 -56 22 -18 50
-19 547 -19 367 0 530 3 548 11 37 17 51 60 32 97 -8 16 -26 32 -38 36 -13 3
-258 6 -544 6 -495 0 -523 -1 -545 -19z"/>
</g>
</svg>
